<svg version="1.2" viewBox="0 0 7270 8130" preserveAspectRatio="xMidYMid" fill-rule="evenodd" stroke-width="28.222"
	 stroke-linejoin="round" xmlns="http://www.w3.org/2000/svg" xmlns:xlink="http://www.w3.org/1999/xlink"
	 xml:space="preserve">
 <g class="SlideGroup">
  <g>
   <g id="container-id1">
	<g id="id1" class="Slide" clip-path="url(#presentation_clip_path)">
	 <g class="Page">
	  <g class="Group">
	   <g class="com.sun.star.drawing.ClosedBezierShape">
		<g id="id3">
		 <rect class="BoundingBox" stroke="none" fill="none" x="2013" y="-1" width="3206" height="2630"/>
			<path fill="#F9423A" stroke="none"
				  d="M 5182,1402 C 5184,1430 5188,1826 4608,1792 4585,1790 4557,1781 4536,1784 5603,1068 4460,836 4357,512 4347,652 4403,696 4456,822 4508,944 4497,1000 4497,1000 4497,1000 3927,606 4019,237 4025,216 3806,390 3853,699 3890,946 3907,1343 3265,1429 2913,1475 1958,1682 2016,2184 2073,2685 3061,2624 3061,2624 3332,2624 3215,2396 3055,2319 2777,2192 2776,1884 3474,1750 3127,1966 3178,2084 3440,2223 3735,2377 3469,2622 3598,2623 3697,2627 3872,2628 3965,2628 4125,2625 3363,2265 4154,1806 3779,2343 4264,2586 4340,2589 4415,2592 4086,2277 4735,2136 5405,1990 5182,1402 5182,1402 Z M 3602,569 L 3602,569 C 3734,896 3519,1138 3300,1202 3105,1260 2884,1274 2740,1324 2593,1376 2437,1519 2437,1519 2437,1519 2423,1368 2601,1181 2814,986 3000,1011 3172,824 3324,658 3191,528 3205,336 3215,194 3267,84 3375,0 3330,206 3494,302 3602,569 Z M 2546,123 L 2546,123 C 2858,62 3262,637 2775,839 2319,1026 2303,1437 2303,1437 2303,1437 2062,1015 2622,666 2895,496 2700,231 2546,123 Z"/>
		</g>
	   </g>
		  <g class="com.sun.star.drawing.ClosedBezierShape">
		<g id="id4">
		 <rect class="BoundingBox" stroke="none" fill="none" x="2261" y="2722" width="2749" height="5414"/>
			<path fill="#AD841F" stroke="none"
				  d="M 5008,3253 C 5006,3134 4800,3089 4744,3073 L 3582,3073 C 3522,3073 3613,3252 3656,3252 3701,3252 5008,3253 5008,3253 Z M 2897,3013 L 2897,3013 4700,3014 C 4672,2903 4581,2888 4581,2888 L 3575,2888 C 3526,2888 3530,2931 3533,2964 L 2926,2964 C 2892,2964 2897,3013 2897,3013 Z M 3103,2839 L 3103,2839 4526,2839 C 4504,2735 4464,2723 4464,2723 L 3561,2723 C 3535,2723 3512,2738 3518,2796 3348,2796 3177,2796 3128,2796 3101,2796 3103,2839 3103,2839 Z M 2851,2737 L 2851,2737 C 2851,2737 2807,2734 2778,2836 2744,2876 2665,2785 2567,2994 2267,3029 2233,3221 2278,3243 2295,3250 2293,3246 2293,3246 2306,3125 2532,3046 2596,3030 2676,2813 2762,2896 2793,2854 2813,2749 2851,2737 2851,2737 Z M 2388,3429 L 2388,3429 C 2427,3464 2418,3452 2455,3490 2583,3636 2495,3925 2975,4074 2975,4074 2986,4153 3026,4154 3066,4154 4198,4154 4246,4154 4294,4153 4306,4074 4306,4074 4785,3925 4697,3636 4825,3490 4863,3452 4853,3464 4892,3429 4968,3364 5026,3303 4985,3303 4946,3303 2306,3303 2306,3303 2240,3301 2312,3364 2388,3429 Z M 2560,3352 L 2560,3352 3739,3356 C 3739,3356 3993,3398 4070,3588 4155,3844 3826,3926 3535,3987 3374,4020 3233,4079 3157,4079 3099,4079 3059,4000 3059,4000 2640,3867 2631,3655 2587,3527 2543,3399 2446,3352 2560,3352 Z M 3047,4240 L 3047,4240 C 3047,4260 3057,4275 3069,4275 L 4201,4275 C 4214,4275 4223,4260 4223,4240 4223,4221 4214,4205 4201,4205 L 3069,4205 C 3057,4205 3047,4221 3047,4240 Z M 3361,5422 L 3361,5422 C 3318,5422 3305,5422 3262,5422 L 3379,6483 C 3412,6494 3406,6492 3443,6503 L 3361,5422 Z M 3443,5422 L 3443,5422 C 3483,5422 3537,5421 3593,5421 L 3607,6527 C 3551,6525 3505,6517 3482,6514 L 3443,5422 Z M 3634,7632 L 3634,7632 C 3536,7632 3507,7612 3507,7612 L 3558,8063 C 3558,8063 3567,8134 3635,8134 3704,8134 3715,8062 3715,8062 L 3763,7612 C 3763,7612 3731,7632 3634,7632 Z M 3662,6528 L 3662,6528 C 3716,6526 3764,6519 3787,6515 L 3826,5422 C 3785,5421 3732,5421 3676,5421 L 3662,6521 3662,6528 Z M 3910,5422 L 3910,5422 3831,6504 C 3864,6496 3864,6496 3893,6485 L 4008,5424 C 3965,5423 3953,5423 3910,5422 Z"/>
		</g>
	   </g>
		  <g class="com.sun.star.drawing.ClosedBezierShape">
		<g id="id5">
		 <rect class="BoundingBox" stroke="none" fill="none" x="5701" y="941" width="635" height="707"/>
			<path fill="#0072CE" stroke="none"
				  d="M 5943,1244 C 5880,1199 5818,1221 5762,1278 5687,1353 5683,1431 5739,1490 L 5893,1647 6334,1203 6250,1117 6068,1301 6047,1279 C 5982,1214 6031,1173 6084,1121 6113,1092 6145,1064 6161,1026 L 6079,942 C 6069,968 5987,1054 5959,1082 5880,1162 5929,1222 5945,1243 L 5943,1244 Z M 5963,1332 L 6000,1370 5877,1494 5840,1456 C 5814,1429 5814,1396 5856,1354 5884,1325 5930,1298 5963,1332 Z"/>
		</g>
	   </g>
		  <g class="com.sun.star.drawing.ClosedBezierShape">
		<g id="id6">
		 <rect class="BoundingBox" stroke="none" fill="none" x="828" y="5603" width="644" height="635"/>
			<path fill="#0072CE" stroke="none"
				  d="M 1419,5751 L 1287,5603 829,6029 959,6173 C 1095,6324 1247,6165 1317,6099 1460,5966 1524,5867 1419,5751 Z M 1234,6012 C 1119,6119 1066,6149 1017,6095 L 979,6052 1296,5757 1337,5803 C 1392,5864 1318,5933 1234,6012 Z"/>
		</g>
	   </g>
		  <g class="com.sun.star.drawing.PolyPolygonShape">
		<g id="id7">
		 <rect class="BoundingBox" stroke="none" fill="none" x="373" y="5007" width="694" height="585"/>
			<path fill="#0072CE" stroke="none"
				  d="M 757,5233 L 891,5159 982,5329 1066,5283 919,5007 374,5309 523,5590 607,5543 514,5368 673,5280 756,5436 840,5390 757,5233 Z"/>
		</g>
	   </g>
		  <g class="com.sun.star.drawing.ClosedBezierShape">
		<g id="id8">
		 <rect class="BoundingBox" stroke="none" fill="none" x="1262" y="5995" width="561" height="611"/>
			<path fill="#0072CE" stroke="none"
				  d="M 1744,6047 C 1593,5923 1495,6046 1391,6175 1289,6304 1189,6428 1340,6553 1491,6678 1590,6553 1693,6425 1797,6296 1895,6172 1744,6047 Z M 1600,6349 C 1500,6474 1450,6523 1398,6480 1347,6437 1384,6378 1484,6252 1584,6127 1634,6078 1686,6121 1737,6163 1701,6223 1600,6349 Z"/>
		</g>
	   </g>
		  <g class="com.sun.star.drawing.ClosedBezierShape">
		<g id="id9">
		 <rect class="BoundingBox" stroke="none" fill="none" x="5363" y="678" width="553" height="617"/>
			<path fill="#0072CE" stroke="none"
				  d="M 5445,1246 C 5600,1366 5695,1239 5794,1106 5892,974 5988,846 5833,727 5678,607 5582,735 5484,867 5385,1000 5290,1127 5445,1246 Z M 5579,940 C 5675,811 5724,761 5777,802 5830,843 5795,903 5699,1032 5603,1161 5554,1212 5501,1171 5449,1130 5483,1069 5579,940 Z"/>
		</g>
	   </g>
		  <g class="com.sun.star.drawing.PolyPolygonShape">
		<g id="id10">
		 <rect class="BoundingBox" stroke="none" fill="none" x="2884" y="6656" width="395" height="668"/>
			<path fill="#0072CE" stroke="none"
				  d="M 3278,6725 L 2903,6656 2885,6759 3014,6783 2921,7301 3037,7322 3130,6804 3259,6829 3278,6725 Z"/>
		</g>
	   </g>
		  <g class="com.sun.star.drawing.PolyPolygonShape">
		<g id="id11">
		 <rect class="BoundingBox" stroke="none" fill="none" x="236" y="2073" width="696" height="540"/>
			<path fill="#0072CE" stroke="none"
				  d="M 402,2223 L 569,2296 499,2459 586,2498 656,2335 796,2397 721,2574 808,2612 931,2325 362,2074 237,2367 324,2406 402,2223 Z"/>
		</g>
	   </g>
		  <g class="com.sun.star.drawing.ClosedBezierShape">
		<g id="id12">
		 <rect class="BoundingBox" stroke="none" fill="none" x="2389" y="6574" width="461" height="647"/>
			<path fill="#0072CE" stroke="none"
				  d="M 2730,6589 C 2593,6544 2529,6606 2499,6700 2443,6879 2667,6959 2633,7067 2620,7108 2593,7129 2555,7117 2493,7097 2506,7048 2525,6991 L 2412,6954 C 2374,7056 2371,7156 2510,7201 2595,7229 2703,7244 2752,7088 2812,6900 2582,6836 2618,6722 2631,6680 2660,6665 2697,6677 2742,6691 2734,6740 2720,6784 L 2830,6820 C 2876,6697 2839,6624 2730,6589 Z"/>
		</g>
	   </g>
		  <g class="com.sun.star.drawing.PolyPolygonShape">
		<g id="id13">
		 <rect class="BoundingBox" stroke="none" fill="none" x="482" y="1722" width="678" height="577"/>
			<path fill="#0072CE" stroke="none"
				  d="M 1000,2197 L 662,1875 663,1874 1095,2033 1159,1926 554,1723 483,1844 940,2298 1000,2197 Z"/>
		</g>
	   </g>
		  <g class="com.sun.star.drawing.PolyPolygonShape">
		<g id="id14">
		 <rect class="BoundingBox" stroke="none" fill="none" x="1959" y="6388" width="545" height="709"/>
			<path fill="#0072CE" stroke="none"
				  d="M 2291,6527 L 2463,6609 2503,6522 2224,6388 1960,6959 2245,7095 2285,7008 2108,6923 2185,6756 2343,6831 2384,6743 2226,6668 2291,6527 Z"/>
		</g>
	   </g>
		  <g class="com.sun.star.drawing.ClosedBezierShape">
		<g id="id15">
		 <rect class="BoundingBox" stroke="none" fill="none" x="172" y="4584" width="668" height="527"/>
			<path fill="#0072CE" stroke="none"
				  d="M 601,5057 C 782,4987 878,4919 823,4771 L 753,4584 173,4807 241,4990 C 312,5183 511,5091 601,5057 Z M 324,4940 L 304,4886 706,4731 727,4789 C 756,4867 662,4904 555,4945 410,5000 349,5009 324,4940 Z"/>
		</g>
	   </g>
		  <g class="com.sun.star.drawing.ClosedBezierShape">
		<g id="id16">
		 <rect class="BoundingBox" stroke="none" fill="none" x="2791" y="4433" width="788" height="816"/>
			<path fill="#0072CE" stroke="none"
				  d="M 3578,4911 L 3456,4911 C 3454,4954 3449,4989 3443,5016 3436,5044 3427,5068 3415,5087 3405,5103 3390,5115 3370,5121 3351,5128 3316,5131 3265,5131 L 3132,5131 3132,4878 3162,4878 C 3197,4878 3219,4888 3232,4904 3244,4921 3252,4957 3253,5015 L 3346,5015 3346,4643 3253,4643 3253,4650 C 3253,4696 3246,4727 3232,4745 3219,4762 3195,4771 3161,4771 L 3132,4771 3132,4548 3229,4548 3251,4548 C 3296,4548 3329,4551 3349,4557 3369,4564 3386,4575 3400,4591 3413,4604 3423,4622 3432,4644 3440,4666 3448,4697 3456,4737 L 3574,4737 3574,4433 2792,4433 2792,4547 2828,4547 C 2855,4547 2871,4551 2878,4559 2886,4566 2889,4586 2889,4617 L 2889,5061 2889,5067 C 2889,5097 2885,5116 2878,5122 2870,5129 2854,5131 2829,5131 L 2792,5131 2792,5247 3578,5247 3578,4911 Z"/>
		</g>
	   </g>
		  <g class="com.sun.star.drawing.ClosedBezierShape">
		<g id="id17">
		 <rect class="BoundingBox" stroke="none" fill="none" x="92" y="2490" width="698" height="483"/>
			<path fill="#0072CE" stroke="none"
				  d="M 272,2882 C 379,2913 407,2840 417,2816 L 419,2816 C 411,2895 460,2939 536,2962 638,2991 706,2957 729,2878 L 789,2665 193,2491 160,2606 407,2678 399,2708 C 374,2797 315,2773 244,2752 205,2741 166,2726 125,2730 L 93,2843 C 121,2840 234,2871 272,2882 Z M 484,2756 L 499,2705 665,2753 650,2804 C 640,2841 612,2857 555,2840 517,2829 471,2802 484,2756 Z"/>
		</g>
	   </g>
		  <g class="com.sun.star.drawing.ClosedBezierShape">
		<g id="id18">
		 <rect class="BoundingBox" stroke="none" fill="none" x="29" y="2981" width="641" height="413"/>
			<path fill="#0072CE" stroke="none"
				  d="M 184,3354 C 377,3382 401,3141 517,3158 560,3165 579,3191 574,3229 567,3277 519,3278 474,3271 L 457,3386 C 584,3413 649,3364 665,3248 685,3103 615,3050 519,3036 336,3009 295,3247 185,3231 143,3225 118,3201 124,3161 133,3095 182,3100 241,3109 L 258,2990 C 152,2968 55,2982 34,3129 21,3220 25,3330 184,3354 Z"/>
		</g>
	   </g>
		  <g class="com.sun.star.drawing.PolyPolygonShape">
		<g id="id19">
		 <rect class="BoundingBox" stroke="none" fill="none" x="685" y="1427" width="571" height="475"/>
			<path fill="#0072CE" stroke="none" d="M 1255,1805 L 757,1428 686,1525 1184,1901 1255,1805 Z"/>
		</g>
	   </g>
		  <g class="com.sun.star.drawing.PolyPolygonShape">
		<g id="id20">
		 <rect class="BoundingBox" stroke="none" fill="none" x="5" y="3457" width="627" height="148"/>
			<path fill="#0072CE" stroke="none" d="M 629,3544 L 626,3604 6,3578 11,3458 631,3484 629,3544 Z"/>
		</g>
	   </g>
		  <g class="com.sun.star.drawing.ClosedBezierShape">
		<g id="id21">
		 <rect class="BoundingBox" stroke="none" fill="none" x="1317" y="706" width="622" height="678"/>
			<path fill="#0072CE" stroke="none"
				  d="M 1635,1383 L 1728,1309 1463,963 C 1420,908 1416,863 1456,831 1490,804 1532,810 1579,871 L 1845,1217 1938,1143 1667,790 C 1595,696 1500,676 1398,757 1285,847 1307,955 1365,1030 L 1635,1383 Z"/>
		</g>
	   </g>
		  <g class="com.sun.star.drawing.PolyPolygonShape">
		<g id="id22">
		 <rect class="BoundingBox" stroke="none" fill="none" x="36" y="4228" width="674" height="465"/>
			<path fill="#0072CE" stroke="none"
				  d="M 677,4251 L 37,4228 62,4344 203,4347 237,4507 109,4567 135,4691 709,4406 677,4251 Z M 325,4461 L 301,4350 575,4346 575,4347 325,4461 Z"/>
		</g>
	   </g>
		  <g class="com.sun.star.drawing.PolyPolygonShape">
		<g id="id23">
		 <rect class="BoundingBox" stroke="none" fill="none" x="843" y="995" width="743" height="746"/>
			<path fill="#0072CE" stroke="none"
				  d="M 1372,1658 L 1059,1359 1060,1358 1476,1546 1585,1428 1133,996 1057,1077 1388,1393 1387,1394 951,1193 844,1308 1297,1740 1372,1658 Z"/>
		</g>
	   </g>
		  <g class="com.sun.star.drawing.ClosedBezierShape">
		<g id="id24">
		 <rect class="BoundingBox" stroke="none" fill="none" x="-1" y="3687" width="635" height="412"/>
			<path fill="#0072CE" stroke="none"
				  d="M 338,4092 C 530,4080 642,4044 632,3887 L 620,3688 0,3728 12,3923 C 25,4126 243,4099 338,4092 Z M 532,3813 L 536,3875 C 541,3958 441,3965 327,3972 171,3983 111,3972 107,3899 L 103,3842 532,3813 Z"/>
		</g>
	   </g>
		  <g class="com.sun.star.drawing.ClosedBezierShape">
		<g id="id25">
		 <rect class="BoundingBox" stroke="none" fill="none" x="1787" y="4433" width="854" height="840"/>
			<path fill="#0072CE" stroke="none"
				  d="M 2206,5271 C 2316,5271 2401,5249 2458,5204 2516,5158 2544,5092 2544,5005 L 2544,4613 C 2544,4584 2548,4566 2555,4559 2563,4551 2579,4548 2605,4548 L 2640,4548 2640,4433 2294,4433 2294,4548 2332,4548 C 2358,4548 2375,4551 2382,4558 2389,4565 2393,4585 2393,4617 L 2393,4986 C 2393,5042 2382,5083 2360,5108 2338,5133 2302,5145 2251,5145 2209,5145 2178,5133 2161,5107 2143,5082 2134,5038 2134,4975 L 2134,4617 C 2134,4586 2138,4567 2145,4559 2153,4551 2170,4548 2196,4548 L 2238,4548 2238,4433 1788,4433 1788,4548 1826,4548 C 1853,4548 1869,4552 1877,4559 1885,4567 1889,4586 1889,4617 L 1889,5016 C 1889,5097 1916,5160 1972,5205 2027,5249 2105,5271 2206,5271 Z"/>
		</g>
	   </g>
		  <g class="com.sun.star.drawing.PolyPolygonShape">
		<g id="id26">
		 <rect class="BoundingBox" stroke="none" fill="none" x="6125" y="5301" width="585" height="448"/>
			<path fill="#0072CE" stroke="none" d="M 6125,5401 L 6644,5747 6708,5646 6189,5301 6125,5401 Z"/>
		</g>
	   </g>
		  <g class="com.sun.star.drawing.PolyPolygonShape">
		<g id="id27">
		 <rect class="BoundingBox" stroke="none" fill="none" x="3181" y="6730" width="466" height="651"/>
			<path fill="#0072CE" stroke="none"
				  d="M 3376,6730 L 3182,7351 3299,7358 3339,7220 3499,7230 3522,7372 3645,7379 3531,6740 3376,6730 Z M 3368,7125 L 3438,6856 3439,6856 3480,7132 3368,7125 Z"/>
		</g>
	   </g>
		  <g class="com.sun.star.drawing.ClosedBezierShape">
		<g id="id28">
		 <rect class="BoundingBox" stroke="none" fill="none" x="5870" y="5514" width="711" height="621"/>
			<path fill="#0072CE" stroke="none"
				  d="M 6270,5745 L 6269,5743 C 6306,5674 6278,5614 6216,5564 6134,5496 6058,5500 6007,5564 L 5870,5737 6352,6133 6426,6040 6227,5876 6246,5852 C 6303,5780 6348,5825 6405,5872 6436,5898 6467,5927 6506,5939 L 6579,5848 C 6552,5840 6460,5767 6429,5742 6343,5670 6289,5727 6270,5745 Z M 6186,5773 L 6153,5815 6018,5704 6052,5663 C 6075,5633 6107,5629 6153,5667 6184,5693 6215,5736 6186,5773 Z"/>
		</g>
	   </g>
		  <g class="com.sun.star.drawing.ClosedBezierShape">
		<g id="id29">
		 <rect class="BoundingBox" stroke="none" fill="none" x="5347" y="6077" width="552" height="618"/>
			<path fill="#0072CE" stroke="none"
				  d="M 5430,6124 C 5274,6242 5367,6370 5466,6504 5563,6636 5658,6765 5814,6646 5970,6528 5875,6399 5778,6267 5679,6133 5585,6005 5430,6124 Z M 5758,6570 C 5705,6611 5657,6560 5562,6431 5467,6301 5432,6240 5485,6200 5538,6159 5587,6210 5682,6339 5777,6469 5811,6530 5758,6570 Z"/>
		</g>
	   </g>
		  <g class="com.sun.star.drawing.ClosedBezierShape">
		<g id="id30">
		 <rect class="BoundingBox" stroke="none" fill="none" x="6538" y="4176" width="654" height="470"/>
			<path fill="#0072CE" stroke="none"
				  d="M 6919,4198 C 6729,4157 6612,4161 6580,4315 L 6538,4511 7145,4644 7185,4452 C 7228,4252 7012,4219 6919,4198 Z M 7089,4449 L 7077,4506 6657,4414 6670,4354 C 6687,4272 6785,4293 6897,4318 7049,4351 7104,4378 7089,4449 Z"/>
		</g>
	   </g>
		  <g class="com.sun.star.drawing.PolyPolygonShape">
		<g id="id31">
		 <rect class="BoundingBox" stroke="none" fill="none" x="6265" y="1902" width="743" height="660"/>
			<path fill="#0072CE" stroke="none"
				  d="M 6312,2275 L 6701,2087 6701,2089 6377,2414 6446,2561 7006,2290 6959,2188 6549,2386 6548,2385 6892,2045 6825,1903 6265,2173 6312,2275 Z"/>
		</g>
	   </g>
		  <g class="com.sun.star.drawing.ClosedBezierShape">
		<g id="id32">
		 <rect class="BoundingBox" stroke="none" fill="none" x="6283" y="4950" width="628" height="516"/>
			<path fill="#0072CE" stroke="none"
				  d="M 6685,5031 C 6539,4955 6399,4883 6311,5059 6223,5236 6362,5308 6508,5384 6653,5459 6794,5531 6882,5355 6970,5178 6830,5106 6685,5031 Z M 6800,5312 C 6770,5373 6704,5348 6563,5275 6421,5202 6364,5163 6394,5102 6425,5042 6489,5066 6631,5139 6772,5213 6830,5252 6800,5312 Z"/>
		</g>
	   </g>
		  <g class="com.sun.star.drawing.PolyPolygonShape">
		<g id="id33">
		 <rect class="BoundingBox" stroke="none" fill="none" x="6625" y="3752" width="645" height="362"/>
			<path fill="#0072CE" stroke="none"
				  d="M 7173,3787 L 7157,3986 6977,3972 6990,3795 6895,3787 6881,3965 6729,3953 6743,3760 6648,3753 6625,4065 7244,4112 7268,3795 7173,3787 Z"/>
		</g>
	   </g>
		  <g class="com.sun.star.drawing.ClosedBezierShape">
		<g id="id34">
		 <rect class="BoundingBox" stroke="none" fill="none" x="6588" y="2986" width="654" height="351"/>
			<path fill="#0072CE" stroke="none"
				  d="M 7058,2989 L 6588,3062 6606,3181 7085,3107 C 7111,3103 7140,3117 7144,3144 7154,3206 7079,3207 7030,3215 L 7048,3336 C 7187,3314 7261,3295 7236,3130 7224,3046 7166,2972 7058,2989 Z"/>
		</g>
	   </g>
		  <g class="com.sun.star.drawing.PolyPolygonShape">
		<g id="id35">
		 <rect class="BoundingBox" stroke="none" fill="none" x="6499" y="2404" width="686" height="482"/>
			<path fill="#0072CE" stroke="none"
				  d="M 6544,2885 L 7183,2859 7150,2745 7009,2754 6963,2597 7087,2527 7051,2405 6499,2734 6544,2885 Z M 6879,2648 L 6911,2758 6639,2783 6638,2781 6879,2648 Z"/>
		</g>
	   </g>
		  <g class="com.sun.star.drawing.ClosedBezierShape">
		<g id="id36">
		 <rect class="BoundingBox" stroke="none" fill="none" x="4895" y="6345" width="560" height="680"/>
			<path fill="#0072CE" stroke="none"
				  d="M 5068,6372 L 4895,6467 5189,7023 5358,6930 C 5535,6833 5420,6644 5375,6559 5283,6385 5204,6297 5068,6372 Z M 5298,6853 L 5247,6881 5044,6495 5097,6466 C 5169,6426 5217,6516 5271,6619 5345,6758 5361,6818 5298,6853 Z"/>
		</g>
	   </g>
		  <g class="com.sun.star.drawing.PolyPolygonShape">
		<g id="id37">
		 <rect class="BoundingBox" stroke="none" fill="none" x="5940" y="1312" width="559" height="492"/>
			<path fill="#0072CE" stroke="none" d="M 6014,1803 L 6497,1406 6422,1313 5940,1709 6014,1803 Z"/>
		</g>
	   </g>
		  <g class="com.sun.star.drawing.ClosedBezierShape">
		<g id="id38">
		 <rect class="BoundingBox" stroke="none" fill="none" x="3712" y="6727" width="415" height="649"/>
			<path fill="#0072CE" stroke="none"
				  d="M 3908,6728 L 3712,6745 3765,7374 3957,7357 C 4158,7340 4126,7119 4118,7023 4101,6827 4062,6715 3908,6728 Z M 3931,7262 L 3874,7267 3837,6832 3898,6826 C 3980,6819 3988,6921 3998,7037 4012,7194 4003,7256 3931,7262 Z"/>
		</g>
	   </g>
		  <g class="com.sun.star.drawing.ClosedBezierShape">
		<g id="id39">
		 <rect class="BoundingBox" stroke="none" fill="none" x="4191" y="6638" width="442" height="652"/>
			<path fill="#0072CE" stroke="none"
				  d="M 4337,6646 C 4147,6692 4184,6847 4222,7009 4260,7170 4297,7326 4486,7280 4675,7234 4638,7078 4600,6917 4562,6755 4525,6600 4337,6646 Z M 4464,7188 C 4400,7204 4375,7138 4338,6981 4301,6824 4293,6754 4358,6738 4423,6722 4447,6788 4484,6946 4521,7103 4529,7173 4464,7188 Z"/>
		</g>
	   </g>
		  <g class="com.sun.star.drawing.ClosedBezierShape">
		<g id="id40">
		 <rect class="BoundingBox" stroke="none" fill="none" x="3776" y="4433" width="890" height="835"/>
			<path fill="#0072CE" stroke="none"
				  d="M 4664,5017 L 4588,5017 C 4588,5020 4589,5025 4589,5032 4589,5038 4590,5042 4590,5045 4590,5073 4587,5094 4582,5108 4577,5122 4570,5129 4560,5129 4549,5129 4542,5123 4537,5112 4533,5101 4531,5080 4531,5051 4531,4954 4522,4892 4504,4865 4486,4839 4452,4821 4401,4815 4451,4804 4490,4782 4518,4751 4545,4720 4559,4681 4559,4636 4559,4568 4537,4517 4492,4483 4447,4450 4380,4433 4289,4433 L 3776,4433 3776,4548 3814,4548 C 3840,4548 3857,4553 3864,4560 3871,4568 3875,4586 3875,4618 L 3875,5061 C 3875,5093 3871,5113 3864,5120 3856,5128 3839,5131 3814,5131 L 3776,5131 3776,5247 4224,5247 4224,5131 4182,5131 C 4156,5131 4140,5127 4132,5120 4125,5113 4121,5093 4121,5061 L 4121,4879 4188,4879 C 4229,4879 4257,4887 4270,4901 4283,4916 4290,4951 4290,5005 L 4290,5073 C 4290,5140 4305,5189 4336,5220 4367,5251 4416,5266 4483,5266 4547,5266 4594,5249 4622,5215 4651,5181 4664,5125 4664,5049 4664,5046 4664,5041 4664,5033 4664,5026 4664,5020 4664,5017 Z M 4281,4745 C 4262,4760 4230,4769 4184,4769 L 4119,4769 4119,4554 4192,4554 C 4236,4554 4266,4562 4283,4578 4300,4595 4309,4624 4309,4665 4309,4702 4299,4729 4281,4745 Z"/>
		</g>
	   </g>
		  <g class="com.sun.star.drawing.PolyPolygonShape">
		<g id="id41">
		 <rect class="BoundingBox" stroke="none" fill="none" x="6056" y="1497" width="689" height="617"/>
			<path fill="#0072CE" stroke="none"
				  d="M 6598,1718 L 6447,1820 6350,1672 6271,1725 6368,1873 6240,1959 6135,1799 6056,1852 6226,2113 6743,1764 6570,1498 6490,1552 6598,1718 Z"/>
		</g>
	   </g>
		  <g class="com.sun.star.drawing.ClosedBezierShape">
		<g id="id42">
		 <rect class="BoundingBox" stroke="none" fill="none" x="4813" y="4433" width="671" height="840"/>
			<path fill="#0072CE" stroke="none"
				  d="M 5227,5252 C 5266,5239 5298,5220 5324,5194 5347,5171 5363,5144 5373,5112 5383,5080 5388,5034 5388,4974 L 5388,4617 5388,4611 C 5388,4581 5392,4563 5399,4557 5407,4550 5423,4547 5447,4547 L 5482,4547 5482,4433 5037,4433 5037,4547 5079,4547 C 5105,4547 5122,4551 5129,4558 5137,4566 5140,4585 5140,4617 L 5140,4962 C 5140,5035 5132,5084 5116,5109 5100,5133 5072,5145 5031,5145 5011,5145 4994,5140 4979,5130 4964,5120 4952,5105 4943,5086 4949,5087 4954,5088 4959,5088 4965,5089 4969,5089 4974,5089 5003,5089 5025,5079 5042,5059 5060,5039 5068,5013 5068,4981 5068,4947 5059,4919 5040,4899 5021,4879 4995,4869 4962,4869 4918,4869 4882,4885 4854,4916 4827,4948 4813,4990 4813,5041 4813,5109 4839,5164 4890,5207 4942,5250 5008,5271 5091,5271 5142,5271 5188,5265 5227,5252 Z"/>
		</g>
	   </g>
	  </g>
	 </g>
	</g>
   </g>
  </g>
 </g>
</svg>